<?xml version="1.0" encoding="UTF-8"?>
<svg version="1.1" xmlns="http://www.w3.org/2000/svg" width="960" height="960">
<path d="M0 0 C316.8 0 633.6 0 960 0 C960 316.8 960 633.6 960 960 C643.2 960 326.4 960 0 960 C0 643.2 0 326.4 0 0 Z " fill="#8F97AB" transform="translate(0,0)"/>
<path d="M0 0 C11.1061664 9.29373197 17.44296867 21.41989977 23.66796875 34.2578125 C25.92790784 38.90438587 28.34184715 43.46464063 30.765625 48.02734375 C34.27613084 54.64996692 37.68202605 61.31420887 41.0078125 68.03125 C42.85182541 71.74176378 44.75895743 75.40239589 46.765625 79.02734375 C49.06420984 83.18318514 51.22180107 87.3967097 53.328125 91.65234375 C56.88015917 98.82688897 60.56063605 105.93070994 64.265625 113.02734375 C69.19748418 122.48054328 74.03960504 131.96989075 78.765625 141.52734375 C83.04942868 150.18477625 87.39348489 158.7936502 91.97436523 167.29833984 C93.82568153 170.74075278 95.61388594 174.20233431 97.328125 177.71484375 C99.09286885 181.29727377 101.033677 184.72190735 103.078125 188.15234375 C107.37187729 195.41726086 111.05102135 202.9564298 114.765625 210.52734375 C118.96666553 219.03493039 123.28122174 227.46884438 127.71777344 235.85546875 C130.0945675 240.34873284 132.45571608 244.84929946 134.79296875 249.36328125 C139.65437436 258.74701385 144.57030004 268.04521444 149.88671875 277.1796875 C152.78132086 282.33701391 155.39468907 287.62759721 158.00390625 292.93359375 C158.30498291 293.54468994 158.60605957 294.15578613 158.91625977 294.78540039 C159.68798169 296.3681069 160.4389334 297.96089872 161.1875 299.5546875 C163.08599076 303.13080499 165.32139555 306.32337082 167.703125 309.58984375 C168.13302734 310.18861328 168.56292969 310.78738281 169.00585938 311.40429688 C178.35739743 324.36022137 189.33540685 333.12105003 204.765625 337.52734375 C208.78289208 338.17375066 212.6982331 338.51219518 216.765625 338.52734375 C217.095625 339.51734375 217.425625 340.50734375 217.765625 341.52734375 C218.425625 342.18734375 219.085625 342.84734375 219.765625 343.52734375 C218.765625 346.52734375 218.765625 346.52734375 215.37109375 348.24609375 C213.90429124 348.85416108 212.43113196 349.44704132 210.953125 350.02734375 C210.178479 350.33704102 209.40383301 350.64673828 208.60571289 350.96582031 C202.41759569 353.38488737 196.27876699 355.19796047 189.765625 356.52734375 C188.05826172 356.94306641 188.05826172 356.94306641 186.31640625 357.3671875 C155.24679629 364.29638109 124.31877904 357.21007295 97.56152344 340.67578125 C76.34328412 327.10718449 60.38287369 308.75283127 48.765625 286.52734375 C48.06571528 285.20540543 47.3651441 283.8838172 46.6640625 282.5625 C41.0248746 271.91214073 35.48478928 261.21048441 29.94384766 250.50878906 C26.14064633 243.1671728 22.31238293 235.83962193 18.453125 228.52734375 C15.20489577 222.3705694 11.98252696 216.2005379 8.765625 210.02734375 C3.06531749 199.0908759 -2.6719023 188.17419132 -8.42724609 177.26660156 C-9.63433795 174.97880456 -10.84076899 172.69066063 -12.046875 170.40234375 C-12.45180176 169.63446533 -12.85672852 168.86658691 -13.27392578 168.07543945 C-15.66783702 163.52812025 -18.04273575 158.97147052 -20.40234375 154.40625 C-25.33852653 144.86058639 -30.2761974 135.33104982 -35.546875 125.96484375 C-38.89008699 120.02267773 -42.04792833 114.02518914 -45.06030273 107.90917969 C-49.47670723 98.96052342 -54.14204569 90.14008135 -58.77783203 81.30371094 C-60.08669353 78.80884453 -61.3932472 76.31278612 -62.69921875 73.81640625 C-67.9740096 63.74963541 -73.33298172 53.72855961 -78.70721436 43.71463013 C-84.27075893 33.34726058 -89.77829931 22.95165777 -95.234375 12.52734375 C-91.74432017 8.32242215 -88.21350296 4.40544432 -84.109375 0.77734375 C-83.28179687 0.04 -82.45421875 -0.69734375 -81.6015625 -1.45703125 C-77.9825173 -4.53859449 -74.88778291 -6.78475405 -70.421875 -8.47265625 C-67.41595087 -9.62301724 -64.46618407 -10.80617806 -61.546875 -12.16015625 C-40.98004329 -20.30927825 -16.63463768 -13.10715791 0 0 Z " fill="#A5BCC9" transform="translate(215.234375,292.47265625)"/>
<path d="M0 0 C1.87607811 1.39262721 3.64354726 2.85078444 5.40625 4.3828125 C6.8603125 5.4346875 6.8603125 5.4346875 8.34375 6.5078125 C18.29739879 15.15737362 23.96649083 27.60964104 30.0234375 39.04296875 C33.1657841 44.97160145 36.44985819 50.80887957 39.78125 56.6328125 C44.69108602 65.24766272 49.43007184 73.94569869 54.09375 82.6953125 C59.31749562 92.49387798 64.59809815 102.25341971 70.03417969 111.93603516 C71.65478024 114.82601001 73.26878559 117.71963009 74.8828125 120.61328125 C76.11964355 122.82820772 77.3566221 125.04305182 78.59375 127.2578125 C79.44948608 128.79151489 79.44948608 128.79151489 80.32250977 130.35620117 C83.20524737 135.5079645 86.12821812 140.63007175 89.12109375 145.71875 C91.51016711 149.79807699 93.73733452 153.87195165 95.78125 158.1328125 C99.3332473 165.3475598 103.25038272 172.31750824 107.22802734 179.30419922 C109.18443811 182.75568725 111.10776294 186.2254001 113.03125 189.6953125 C113.86975197 191.20705327 114.70829558 192.71877094 115.546875 194.23046875 C115.99740234 195.04273926 116.44792969 195.85500977 116.91210938 196.69189453 C118.59008 199.71388672 120.27145364 202.73397193 121.953125 205.75390625 C128.00986355 216.63418143 134.05496246 227.52059086 140.03125 238.4453125 C140.50353027 239.30608398 140.97581055 240.16685547 141.46240234 241.05371094 C142.79112599 243.48946539 144.10141346 245.93419101 145.40625 248.3828125 C145.89375732 249.27846924 146.38126465 250.17412598 146.88354492 251.09692383 C147.35123291 251.98275146 147.8189209 252.8685791 148.30078125 253.78125 C148.72721924 254.57837402 149.15365723 255.37549805 149.59301758 256.19677734 C150.40625 258.3828125 150.40625 258.3828125 149.46875 261.9453125 C148.79776649 263.10089521 148.10942109 264.24652878 147.40625 265.3828125 C146.82731523 266.68814657 146.26619701 268.0014629 145.71875 269.3203125 C142.92945266 275.57767155 139.79807516 281.6699334 136.71313477 287.78491211 C135.05673172 291.07760496 133.40917267 294.37469908 131.76171875 297.671875 C129.0982479 303.00236752 126.43012306 308.33049018 123.75680542 313.65605164 C122.08335959 316.99024623 120.41160231 320.32528613 118.73999023 323.66040039 C117.88065165 325.37396146 117.02060678 327.0871685 116.15991211 328.80004883 C114.89771182 331.31238339 113.63805771 333.82598007 112.37890625 336.33984375 C111.99356216 337.10537064 111.60821808 337.87089752 111.2111969 338.65962219 C109.77047704 341.54075494 108.426386 344.3224045 107.40625 347.3828125 C106.74625 347.3828125 106.08625 347.3828125 105.40625 347.3828125 C105.220625 348.1871875 105.035 348.9915625 104.84375 349.8203125 C101.81757569 357.31996188 95.64903091 364.26010838 89.40625 369.3828125 C88.74625 369.3828125 88.08625 369.3828125 87.40625 369.3828125 C87.40625 370.0428125 87.40625 370.7028125 87.40625 371.3828125 C86.08625 371.7128125 84.76625 372.0428125 83.40625 372.3828125 C83.40625 373.0428125 83.40625 373.7028125 83.40625 374.3828125 C81.75625 374.7128125 80.10625 375.0428125 78.40625 375.3828125 C78.40625 374.7228125 78.40625 374.0628125 78.40625 373.3828125 C79.1075 372.7640625 79.80875 372.1453125 80.53125 371.5078125 C88.67461174 363.68925721 91.44008461 352.08117629 91.71875 341.2578125 C91.22905682 312.13547107 75.07327798 284.91346247 55.40625 264.3828125 C54.54 263.4753125 53.67375 262.5678125 52.78125 261.6328125 C50.36592219 259.25116679 50.36592219 259.25116679 47.2109375 257.03515625 C42.02734737 252.59535135 39.298506 246.64988556 36.15625 240.6953125 C35.49951325 239.4777542 34.84104564 238.26112803 34.1809082 237.04541016 C33.18742069 235.2155346 32.19482676 233.38525703 31.20747375 231.55206299 C28.43053607 226.3975846 25.54468966 221.31419787 22.59375 216.2578125 C22.1517627 215.49799072 21.70977539 214.73816895 21.25439453 213.95532227 C18.76815449 209.69062081 16.25946794 205.43936546 13.74682617 201.19018555 C9.19131267 193.47994005 4.71210726 185.72791637 0.28125 177.9453125 C-0.29995605 176.93114258 -0.88116211 175.91697266 -1.47998047 174.87207031 C-2.28266357 173.45619629 -2.28266357 173.45619629 -3.1015625 172.01171875 C-3.82303467 170.7443689 -3.82303467 170.7443689 -4.55908203 169.45141602 C-5.59375 167.3828125 -5.59375 167.3828125 -5.59375 165.3828125 C-6.25375 165.3828125 -6.91375 165.3828125 -7.59375 165.3828125 C-8.85039978 162.47680989 -9.59375 160.58676666 -9.59375 157.3828125 C-10.58375 157.0528125 -11.57375 156.7228125 -12.59375 156.3828125 C-14.09375 154.0546875 -14.09375 154.0546875 -15.59375 151.1328125 C-17.07718772 148.27410439 -18.54065906 145.46843898 -20.23828125 142.73046875 C-21.83957991 139.95703794 -22.22641496 137.54189381 -22.59375 134.3828125 C-20.94375 134.0528125 -19.29375 133.7228125 -17.59375 133.3828125 C-16.18092305 130.2993384 -16.18092305 130.2993384 -18.11328125 127.1875 C-18.86704927 125.87150213 -19.63224065 124.56200809 -20.40625 123.2578125 C-20.81206299 122.55567627 -21.21787598 121.85354004 -21.63598633 121.13012695 C-22.94396033 118.87421535 -24.26707464 116.6277704 -25.59375 114.3828125 C-26.46625906 112.89980619 -27.33865606 111.41673395 -28.2109375 109.93359375 C-29.49743729 107.7484199 -30.78502773 105.56392533 -32.07592773 103.38134766 C-34.77240381 98.81437146 -37.35594852 94.20299625 -39.8671875 89.53125 C-42.21990155 85.24100673 -44.6587452 81.00175627 -47.09375 76.7578125 C-52.21504536 67.82627339 -57.27892234 58.86409381 -62.27758789 49.86328125 C-65.25513136 44.51091577 -68.27896562 39.19618788 -71.40625 33.9296875 C-72.01476807 32.89247559 -72.62328613 31.85526367 -73.25024414 30.78662109 C-74.40850224 28.81686784 -75.58145293 26.85565571 -76.77124023 24.90478516 C-79.21270772 20.72408083 -80.60834283 18.31492958 -80.53125 13.390625 C-77.93005226 5.04511557 -69.88152979 0.83215675 -62.66015625 -3.29296875 C-41.67227954 -14.29181701 -19.91336866 -12.4158654 0 0 Z " fill="#A5BCC9" transform="translate(573.59375,294.6171875)"/>
<path d="M0 0 C9.07970724 6.92889203 17.86724943 17.2888705 19.66796875 28.9453125 C19.0473625 33.43916669 17.06998901 36.76107304 14.85546875 40.67578125 C13.92996335 42.36911457 13.00821515 44.06450575 12.08984375 45.76171875 C11.61482422 46.63924805 11.13980469 47.51677734 10.65039062 48.42089844 C7.92031602 53.59752546 5.45975355 58.90223477 2.98291016 64.20336914 C-0.35495147 71.3234228 -3.86800253 78.35063141 -7.39691162 85.37710571 C-9.95613879 90.47866089 -12.50639958 95.5847052 -15.05817032 100.6899929 C-16.73899288 104.05259727 -18.42030563 107.41495652 -20.1015625 110.77734375 C-20.79378485 112.16178271 -21.48600489 113.54622282 -22.17822266 114.93066406 C-23.57242839 117.71907552 -24.96663411 120.50748698 -26.36083984 123.29589844 C-26.70447067 123.98316261 -27.0481015 124.67042679 -27.40214539 125.37851715 C-28.08932189 126.7528651 -28.77650647 128.12720901 -29.46369934 129.50154877 C-31.13134505 132.83675266 -32.79885788 136.17202285 -34.46606445 139.50744629 C-39.67544286 149.92881056 -39.67544286 149.92881056 -42.23828125 155.03320312 C-46.83245749 164.18657593 -51.31937143 173.3891951 -55.76953125 182.61328125 C-60.63035722 192.68857726 -65.55141166 202.7290579 -70.57177734 212.72583008 C-72.98686764 217.53976566 -75.39285013 222.35826192 -77.80078125 227.17578125 C-78.86845689 229.31121426 -79.93616551 231.44663079 -81.00390625 233.58203125 C-81.53951172 234.65324219 -82.07511719 235.72445312 -82.62695312 236.828125 C-87.0078125 245.58984375 -91.38867188 254.3515625 -95.76953125 263.11328125 C-98.99064111 260.16030465 -101.01826947 257.23196266 -103.09765625 253.3984375 C-103.72414063 252.25246094 -104.350625 251.10648438 -104.99609375 249.92578125 C-105.67062835 248.67581116 -106.34510593 247.4258103 -107.01953125 246.17578125 C-107.72973214 244.87199432 -108.44068307 243.5686157 -109.15234375 242.265625 C-110.62986399 239.559027 -112.1041449 236.85070254 -113.57617188 234.14111328 C-116.61971903 228.54456203 -119.70232953 222.96967452 -122.78491211 217.39456177 C-124.4325832 214.4137499 -126.07753183 211.43143665 -127.72265625 208.44921875 C-128.05023926 207.8555098 -128.37782227 207.26180084 -128.71533203 206.65010071 C-130.83697261 202.80465948 -132.95734597 198.95852154 -135.07702637 195.11199951 C-136.53903412 192.45903758 -138.00143585 189.80629291 -139.46386719 187.15356445 C-140.15807423 185.89406994 -140.85209016 184.63447008 -141.54589844 183.37475586 C-142.51057679 181.62326468 -143.47597898 179.87217223 -144.44140625 178.12109375 C-145.30862305 176.53603027 -145.30862305 176.53603027 -146.19335938 174.91894531 C-147.48983989 172.61114574 -148.86103931 170.39665091 -150.28515625 168.16796875 C-152.09653883 164.44033408 -151.71755554 163.08286382 -150.76953125 159.11328125 C-149.63720703 156.41040039 -149.63720703 156.41040039 -148.21484375 153.6484375 C-147.68793945 152.61275635 -147.16103516 151.5770752 -146.61816406 150.51000977 C-146.04936523 149.40971436 -145.48056641 148.30941895 -144.89453125 147.17578125 C-143.70277961 144.83286853 -142.51270613 142.48910152 -141.32421875 140.14453125 C-141.02378662 139.5535817 -140.72335449 138.96263214 -140.41381836 138.35377502 C-137.52881324 132.66872971 -134.75785238 126.93259637 -132.01953125 121.17578125 C-131.57134033 120.23476563 -131.12314941 119.29375 -130.66137695 118.32421875 C-128.55503328 113.89322148 -126.45924776 109.45728711 -124.3671875 105.01953125 C-123.98079102 104.200896 -123.59439453 103.38226074 -123.19628906 102.53881836 C-122.49963441 101.06140372 -121.80468837 99.58318079 -121.11230469 98.10375977 C-117.47164941 90.37145079 -113.60580163 82.74971467 -109.76953125 75.11328125 C-109.05163571 73.68353282 -108.33378089 72.25376393 -107.6159668 70.82397461 C-107.25774841 70.11047852 -106.89953003 69.39698242 -106.53045654 68.66186523 C-105.05339193 65.71911899 -103.57726905 62.7759012 -102.10153198 59.83248901 C-101.32519955 58.28477159 -100.54826322 56.73735696 -99.77078247 55.19021606 C-95.4029178 46.49546773 -91.11143619 37.78557334 -87.04394531 28.94580078 C-79.67803021 12.99528557 -70.4206418 0.13186092 -53.61328125 -6.85546875 C-34.39290249 -13.82549621 -16.92538608 -11.53027006 0 0 Z " fill="#151B30" transform="translate(820.76953125,288.88671875)"/>
<path d="M0 0 C0.99 0.99 0.99 0.99 2 2 C0.6696875 2.4021875 0.6696875 2.4021875 -0.6875 2.8125 C-3.99085055 3.87317799 -3.99085055 3.87317799 -6.6875 5.625 C-9 7 -9 7 -12 7 C-14.13572377 8.86326518 -16.09463178 10.72321357 -18.0625 12.75 C-18.87557617 13.55824219 -18.87557617 13.55824219 -19.70507812 14.3828125 C-23.52888168 18.22644067 -23.52888168 18.22644067 -26 23 C-25.979375 23.845625 -25.95875 24.69125 -25.9375 25.5625 C-26 28 -26 28 -27.4375 29.5625 C-27.953125 30.036875 -28.46875 30.51125 -29 31 C-30.13055309 34.01480825 -30.05609899 34.83170302 -29 38 C-29.99 38.495 -29.99 38.495 -31 39 C-31.6888091 48.13466832 -32.30192693 56.88651147 -31 66 C-30.34 66 -29.68 66 -29 66 C-28.67 66.99 -28.34 67.98 -28 69 C-28.33 69.66 -28.66 70.32 -29 71 C-29.30720885 75.50572982 -28.47115584 78.77042696 -27 83 C-27 84.32 -27 85.64 -27 87 C-26.34 87.33 -25.68 87.66 -25 88 C-24.62761282 90.32741989 -24.30163134 92.66235715 -24 95 C-23.649375 96.216875 -23.29875 97.43375 -22.9375 98.6875 C-22 102 -22 102 -22 106 C-21.34 106.33 -20.68 106.66 -20 107 C-19.27672793 109.05788125 -18.56574767 111.1207398 -17.91015625 113.20117188 C-16.14639782 118.6249183 -14.04285229 123.92656727 -12 129.25 C-11.56171875 130.40757812 -11.1234375 131.56515625 -10.671875 132.7578125 C-10.24390625 133.87414062 -9.8159375 134.99046875 -9.375 136.140625 C-8.99085938 137.14641602 -8.60671875 138.15220703 -8.2109375 139.18847656 C-7.01516616 141.96478761 -5.5710838 144.42320129 -4 147 C-3.66666667 148.33333333 -3.33333333 149.66666667 -3 151 C-2.34 151.33 -1.68 151.66 -1 152 C-0.896875 152.804375 -0.79375 153.60875 -0.6875 154.4375 C0.10296402 158.53354082 1.67909176 161.53747739 3.60546875 165.20703125 C5.55809133 169.11774593 7.11874603 173.16242483 8.69140625 177.23828125 C9.9035806 180.09158963 9.9035806 180.09158963 12.05078125 182.46875 C14.2970481 185.38574583 14.88603903 187.60398445 15.625 191.1875 C16.40995213 195.56895932 16.40995213 195.56895932 19 199 C20.79516803 202.30310918 22.18541601 205.33437203 23 209 C23.33 209.33 23.66 209.66 24 210 C24.36162029 211.32594105 24.69728039 212.65938457 25 214 C25.66 214 26.32 214 27 214 C26.896875 214.680625 26.79375 215.36125 26.6875 216.0625 C27.0758344 219.71284335 28.42871017 221.25157036 30.62890625 224.09375 C32.48418337 226.67316662 33.77697391 229.42331795 35.10546875 232.30078125 C35.99328563 234.19082478 35.99328563 234.19082478 38 236 C39.96618406 240.26006547 41.58063361 244.52353678 43 249 C43.66 249 44.32 249 45 249 C45.56267578 250.16015625 45.56267578 250.16015625 46.13671875 251.34375 C48.80907465 256.78270106 51.53624898 262.04323161 54.84375 267.12109375 C56.44788414 269.72781174 57.73337362 272.45819998 59.0078125 275.23828125 C59.94722513 277.09350763 59.94722513 277.09350763 61.6171875 278.60546875 C63 280 63 280 63 282 C65.0027528 286.09175288 65.0027528 286.09175288 69 288 C69.67784992 290.33010909 70.34416793 292.66359824 71 295 C71.99 295.66 72.98 296.32 74 297 C74.6875 300.625 74.6875 300.625 75 304 C74.01 303.34 73.02 302.68 72 302 C71.63350342 302.71841064 71.26700684 303.43682129 70.8894043 304.17700195 C37.01779463 370.42503091 37.01779463 370.42503091 4 389 C2.54787109 389.81984375 2.54787109 389.81984375 1.06640625 390.65625 C-6.96345052 394.9272186 -15.26289244 397.61059494 -24 400 C-24.88816406 400.24878906 -25.77632813 400.49757813 -26.69140625 400.75390625 C-46.00717372 405.18754148 -67.61070724 402.30915522 -85 393 C-85.95003906 392.52046875 -86.90007812 392.0409375 -87.87890625 391.546875 C-93.78845858 388.37251312 -98.86259429 384.67483121 -103.8125 380.1875 C-104.32731934 379.72657959 -104.84213867 379.26565918 -105.37255859 378.79077148 C-112.99263962 371.60462192 -118.00812342 362.57179519 -122.6875 353.3125 C-123.71562473 351.30442061 -124.7442878 349.29661678 -125.7734375 347.2890625 C-126.29776367 346.26200195 -126.82208984 345.23494141 -127.36230469 344.17675781 C-129.03970336 340.92298447 -130.75243884 337.69017192 -132.4765625 334.4609375 C-133.03512939 333.40994873 -133.59369629 332.35895996 -134.16918945 331.27612305 C-135.25071809 329.24337623 -136.33765774 327.21349761 -137.43041992 325.18676758 C-138.15515503 323.81621216 -138.15515503 323.81621216 -138.89453125 322.41796875 C-139.54192261 321.20790161 -139.54192261 321.20790161 -140.20239258 319.97338867 C-140.46560303 319.32217041 -140.72881348 318.67095215 -141 318 C-140.67 317.34 -140.34 316.68 -140 316 C-139.29875 316.845625 -138.5975 317.69125 -137.875 318.5625 C-122.40901495 337.11017708 -104.6207529 351.92631791 -82 361 C-80.42025391 361.64582031 -80.42025391 361.64582031 -78.80859375 362.3046875 C-48.05920683 374.12868384 -15.69338748 370.16076459 14.19433594 357.89794922 C16.18443225 357.02775545 16.18443225 357.02775545 18 355 C17.34 353.35 16.68 351.7 16 350 C15.30777344 349.99742187 14.61554688 349.99484375 13.90234375 349.9921875 C0.24858997 349.45251344 -11.05301095 344.28773441 -21 335 C-21.886875 334.175 -22.77375 333.35 -23.6875 332.5 C-24.450625 331.675 -25.21375 330.85 -26 330 C-26.54140625 329.41734375 -27.0828125 328.8346875 -27.640625 328.234375 C-30.78736889 324.75927523 -33.74625142 321.17018946 -36.5 317.375 C-37.0053125 316.68148438 -37.510625 315.98796875 -38.03125 315.2734375 C-39.37360158 312.12324145 -38.77226517 310.32049113 -38 307 C-36.62402344 303.92993164 -36.62402344 303.92993164 -34.859375 300.66015625 C-34.54092621 300.0651532 -34.22247742 299.47015015 -33.89437866 298.8571167 C-32.85481583 296.92082071 -31.8027601 294.99164762 -30.75 293.0625 C-30.02146702 291.71275652 -29.29344493 290.36273717 -28.56591797 289.01245117 C-23.66584251 279.94436705 -18.63166425 270.9546341 -13.52124023 262.00341797 C-9.73789648 255.36263697 -6.13211978 248.64617877 -2.60498047 241.86645508 C0.26362536 236.36311627 3.2272812 230.92012578 6.25 225.5 C6.66435303 224.75234375 7.07870605 224.0046875 7.50561523 223.234375 C9.30505943 219.99544788 11.1283803 216.78545677 13.03125 213.60546875 C13.5984375 212.64253906 14.165625 211.67960938 14.75 210.6875 C15.48476563 209.48673828 15.48476563 209.48673828 16.234375 208.26171875 C17.22004023 206.02552642 17.22004023 206.02552642 16.4375 203.7890625 C15.963125 202.86867188 15.48875 201.94828125 15 201 C14.67676758 200.34781494 14.35353516 199.69562988 14.02050781 199.02368164 C12.79141421 196.56310424 11.52559542 194.12429274 10.25 191.6875 C9.77119385 190.77250732 9.2923877 189.85751465 8.79907227 188.91479492 C3.91480043 179.68184499 -1.36552675 170.69449338 -6.6640625 161.6953125 C-10.76693036 154.71835446 -14.68993382 147.64877519 -18.59082031 140.55761719 C-21.48616052 135.302665 -24.40005663 130.05798625 -27.3125 124.8125 C-27.95203613 123.66040039 -28.59157227 122.50830078 -29.25048828 121.32128906 C-33.93754026 112.88766743 -38.67081708 104.48114361 -43.42797852 96.08691406 C-46.72852891 90.25994702 -50.00340753 84.41969557 -53.25 78.5625 C-54.05468286 77.11197659 -54.85937026 75.6614557 -55.6640625 74.2109375 C-56.83323331 72.10331485 -58.00239133 69.99568602 -59.17089844 67.88769531 C-60.31918859 65.81923301 -61.47163647 63.75313687 -62.625 61.6875 C-62.98803223 61.03201172 -63.35106445 60.37652344 -63.72509766 59.70117188 C-65.50103813 56.52728634 -67.33631755 53.44259279 -69.375 50.4296875 C-75.60724464 41.17783175 -75.60724464 41.17783175 -75.25 36.3125 C-74.73046875 34.16015625 -74.73046875 34.16015625 -74 32 C-73.68482422 30.85337891 -73.68482422 30.85337891 -73.36328125 29.68359375 C-69.36315127 17.52710119 -59.9534766 7.2867308 -49 1 C-32.47647579 -6.99137716 -16.88934696 -7.02835372 0 0 Z " fill="#131929" transform="translate(416,282)"/>
<path d="M0 0 C3.40466946 2.38050059 4.78959139 3.96530464 6 8 C6 8.99 6 9.98 6 11 C6.66 11 7.32 11 8 11 C8.31114746 11.57741943 8.62229492 12.15483887 8.94287109 12.74975586 C15.72551309 25.31568912 22.67765257 37.74147287 30 50 C37.17379313 62.03470773 44.07812452 74.20670431 50.8984375 86.4453125 C51.7042627 87.88825684 51.7042627 87.88825684 52.52636719 89.36035156 C53.43086416 90.980534 54.3330891 92.60199054 55.23144531 94.22558594 C56.65886339 96.77859501 57.92020584 98.92020584 60 101 C59.5153125 101.969375 59.030625 102.93875 58.53125 103.9375 C58.2113208 104.57743896 57.8913916 105.21737793 57.56176758 105.87670898 C56.84571863 107.30864224 56.12940413 108.74044273 55.4128418 110.17211914 C53.55685309 113.88126422 51.70480775 117.59224473 49.86328125 121.30859375 C46.39560053 128.29629755 42.90455507 135.24211623 39 142 C38.34 142 37.68 142 37 142 C35.41524955 139.00074658 33.83246479 136.00045992 32.25 133 C31.58484375 131.74123047 31.58484375 131.74123047 30.90625 130.45703125 C28.81587591 126.49146864 26.75006652 122.51976615 24.765625 118.5 C23.20434673 115.15067289 23.20434673 115.15067289 21.5 113 C20.10918617 111.14558155 19.20035824 109.45442911 18.19921875 107.375 C16.09929468 103.12344375 13.74873588 99.06568511 11.3125 95 C7.80867524 89.0987869 4.36234786 83.17055231 1 77.1875 C0.62657471 76.52427734 0.25314941 75.86105469 -0.1315918 75.17773438 C-1.82743361 72.15070575 -3.46400925 69.11070395 -5 66 C-5.95120323 64.22532654 -6.91012229 62.45477601 -7.875 60.6875 C-8.66390625 59.23923828 -8.66390625 59.23923828 -9.46875 57.76171875 C-10.7330908 55.48138981 -12.0387059 53.23829261 -13.375 51 C-15 48 -15 48 -15 45 C-15.66 45 -16.32 45 -17 45 C-18.57747343 42.58739357 -19.01030504 41.22155844 -18.875 38.3125 C-17.72775032 33.96934049 -15.93251754 30.04480415 -14 26 C-13.34 26 -12.68 26 -12 26 C-11.83781982 25.45545166 -11.67563965 24.91090332 -11.50854492 24.34985352 C-9.67806097 18.50866745 -7.25575365 13.29356445 -4.3125 7.9375 C-3.89677734 7.16728516 -3.48105469 6.39707031 -3.05273438 5.60351562 C-2.0415352 3.732216 -1.02168617 1.86559466 0 0 Z " fill="#959DB1" transform="translate(560,449)"/>
<path d="M0 0 C6.86710888 3.05204839 11.28073358 8.36446682 16 14 C16.60714844 14.69609375 17.21429687 15.3921875 17.83984375 16.109375 C24.56301641 24.08369022 29.76936962 33.01026645 35 42 C35.52851562 42.89589844 36.05703125 43.79179688 36.6015625 44.71484375 C45.36976494 60.80873791 50.46635091 82.08605672 45.3125 99.9375 C43.51031058 105.16966282 41.18528957 109.48750644 38 114 C37.4375 112.0625 37.4375 112.0625 37 110 C37.33 109.67 37.66 109.34 38 109 C36.948125 108.63648438 36.948125 108.63648438 35.875 108.265625 C30.010492 106.1939238 24.49929393 103.90528736 19 101 C19 100.34 19 99.68 19 99 C16.03 98.01 16.03 98.01 13 97 C13 96.01 13 95.02 13 94 C12.2575 93.979375 11.515 93.95875 10.75 93.9375 C7.34841541 92.77786889 6.73775127 91.27554824 5.1640625 88.16015625 C3.7940162 85.61775489 2.18342759 83.34605335 0.5 81 C-7 70.41935484 -7 70.41935484 -7 67 C-7.99 66.67 -8.98 66.34 -10 66 C-10.53515625 64.1953125 -10.53515625 64.1953125 -11 62 C-12.10307397 59.90245319 -12.10307397 59.90245319 -13.4375 57.875 C-13.86933594 57.19179688 -14.30117188 56.50859375 -14.74609375 55.8046875 C-16.00999892 53.87185039 -16.00999892 53.87185039 -18 52 C-18.35919668 50.33871537 -18.68911632 48.67099977 -19 47 C-19.62648438 45.94619141 -19.62648438 45.94619141 -20.265625 44.87109375 C-21.42194624 40.35036975 -19.31908352 37.39145625 -17.25 33.375 C-16.63886353 32.13931274 -16.63886353 32.13931274 -16.01538086 30.87866211 C-14.70012925 28.23991201 -13.35542882 25.61832218 -12 23 C-11.54318848 22.11618652 -11.08637695 21.23237305 -10.61572266 20.32177734 C-8.11076201 15.49566564 -5.57425965 10.68740861 -3.00219727 5.89672852 C-1.9711845 3.94546466 -0.9797805 1.97741514 0 0 Z " fill="#131723" transform="translate(619,550)"/>
<path d="M0 0 C5.53126705 4.63178998 8.28167803 10.67576594 11.5625 17 C12.80382031 19.35014567 14.04694051 21.69923298 15.29296875 24.046875 C15.60437805 24.63539246 15.91578735 25.22390991 16.2366333 25.83026123 C20.52715728 33.91675411 25.12158892 41.82876613 29.70410156 49.75195312 C30.89273494 51.81392301 32.07062489 53.88142062 33.2421875 55.953125 C36.42781123 61.58328302 39.69014686 67.14219669 43.125 72.625 C46.21258721 77.59277164 48.88468451 82.64019255 51.4375 87.8984375 C53.17861915 91.35455902 55.06634012 94.71206765 57 98.0625 C57.33563965 98.64813721 57.6712793 99.23377441 58.01708984 99.8371582 C59.62490178 102.63737215 61.2532421 105.42224243 62.9140625 108.19140625 C63.47867188 109.15949219 64.04328125 110.12757813 64.625 111.125 C65.13289062 111.97320312 65.64078125 112.82140625 66.1640625 113.6953125 C67 116 67 116 66.1484375 118.3046875 C65.76945313 118.86414063 65.39046875 119.42359375 65 120 C65 119.34 65 118.68 65 118 C63.02 118.99 63.02 118.99 61 120 C61.95552072 123.44089111 62.91675691 125.88937432 65.078125 128.76171875 C69.64383756 134.91229196 69.64383756 134.91229196 70 139 C68.14216815 145.9217664 63.95160114 152.09462976 60 158 C59 155 59 155 59.625 152.1875 C60.09339273 148.20616183 58.94574248 146.42450676 57 143 C57 142.34 57 141.68 57 141 C56.01 140.67 55.02 140.34 54 140 C54 139.01 54 138.02 54 137 C53.22375043 135.46967943 52.382843 133.971405 51.5 132.5 C49 128.33333333 49 128.33333333 49 125 C48.34 125 47.68 125 47 125 C46.731875 124.236875 46.46375 123.47375 46.1875 122.6875 C45.20735832 120.00893218 45.20735832 120.00893218 43.4375 118.5 C41.50393148 116.48236328 41.53900641 114.72253996 41 112 C40.40620201 110.50744931 39.7589088 109.0353318 39.06640625 107.5859375 C38.6703418 106.75296143 38.27427734 105.91998535 37.86621094 105.06176758 C37.22087402 103.73181763 37.22087402 103.73181763 36.5625 102.375 C35.88815918 100.97447388 35.88815918 100.97447388 35.20019531 99.5456543 C30.68874032 90.24333633 25.89582078 81.10445001 21 72 C20.47390137 71.01902344 19.94780273 70.03804688 19.40576172 69.02734375 C14.05800084 59.05762262 8.70778048 49.08971792 3.25 39.1796875 C2.6516333 38.08873779 2.0532666 36.99778809 1.43676758 35.8737793 C0.29640674 33.79661959 -0.84933737 31.72240347 -2.0012207 29.65161133 C-2.51257568 28.71857178 -3.02393066 27.78553223 -3.55078125 26.82421875 C-4.00106689 26.01041748 -4.45135254 25.19661621 -4.9152832 24.3581543 C-6.54637536 20.81219005 -7.28348086 18.13227528 -6.328125 14.31640625 C-5.97234375 13.40761719 -5.6165625 12.49882812 -5.25 11.5625 C-4.693125 10.13164062 -4.693125 10.13164062 -4.125 8.671875 C-2.87189659 5.69575441 -1.53503194 2.83980909 0 0 Z M41 119 C41.66 119 42.32 119 43 119 C43 119.66 43 120.32 43 121 C42.01 121.33 41.02 121.66 40 122 C40.33 121.01 40.66 120.02 41 119 Z " fill="#788093" transform="translate(491,310)"/>
<path d="M0 0 C0.59425781 0.38671875 1.18851562 0.7734375 1.80078125 1.171875 C11.9429981 7.54427875 20.99965307 10.58113972 33 11 C33.495 12.485 33.495 12.485 34 14 C34.99 14.99 34.99 14.99 36 16 C35 19 35 19 31.60546875 20.71875 C30.13866624 21.32681733 28.66550696 21.91969757 27.1875 22.5 C26.02553101 22.9645459 26.02553101 22.9645459 24.84008789 23.43847656 C18.65197069 25.85754362 12.51314199 27.67061672 6 29 C4.29263672 29.41572266 4.29263672 29.41572266 2.55078125 29.83984375 C-18.13797425 34.45388275 -40.01897414 33.08592291 -60 26 C-61.125 21.25 -61.125 21.25 -60 19 C-58.72769531 19.17789063 -57.45539063 19.35578125 -56.14453125 19.5390625 C-43.31542678 20.9486337 -29.34602763 19.25154034 -18 13 C-17.12214844 12.53335938 -16.24429688 12.06671875 -15.33984375 11.5859375 C-9.62268004 8.36087079 -4.76533588 4.499116 0 0 Z " fill="#717B8D" transform="translate(399,620)"/>
<path d="M0 0 C9.64647406 3.79816428 16.02917392 18.75321215 21.12109375 27.23828125 C23.95874276 31.96125073 26.90977555 36.60647505 29.875 41.25 C35.97708362 50.84694043 41.75774175 60.62373005 47.50097656 70.43847656 C49.26441793 73.45183597 51.03434514 76.46133785 52.80541992 79.47021484 C53.59778845 80.8165774 54.38962351 82.16325407 55.1809082 83.51025391 C57.55646293 87.55336243 59.94107304 91.5909791 62.33203125 95.625 C62.90888672 96.59888672 63.48574219 97.57277344 64.08007812 98.57617188 C65.20144215 100.46871071 66.32377464 102.36067618 67.44726562 104.25195312 C68.4808413 105.9968343 69.50264417 107.74875276 70.51147461 109.50805664 C71.95953514 112.0141049 71.95953514 112.0141049 73.66235352 114.30249023 C75.20462434 116.56390842 76.29346212 118.35226425 77 121 C76.15963226 124.80015113 74.3602088 127.78362218 72.3125 131.0625 C71.81298828 131.92810547 71.31347656 132.79371094 70.79882812 133.68554688 C69.56490513 135.81259508 68.2998943 137.91285025 67 140 C66 137 66 137 66.625 134.1875 C67.09339273 130.20616183 65.94574248 128.42450676 64 125 C64 124.34 64 123.68 64 123 C63.01 122.67 62.02 122.34 61 122 C61 121.01 61 120.02 61 119 C60.22375043 117.46967943 59.382843 115.971405 58.5 114.5 C56 110.33333333 56 110.33333333 56 107 C55.34 107 54.68 107 54 107 C53.731875 106.236875 53.46375 105.47375 53.1875 104.6875 C52.20735832 102.00893218 52.20735832 102.00893218 50.4375 100.5 C48.50393148 98.48236328 48.53900641 96.72253996 48 94 C47.40620201 92.50744931 46.7589088 91.0353318 46.06640625 89.5859375 C45.6703418 88.75296143 45.27427734 87.91998535 44.86621094 87.06176758 C44.22087402 85.73181763 44.22087402 85.73181763 43.5625 84.375 C42.88815918 82.97447388 42.88815918 82.97447388 42.20019531 81.5456543 C37.68874032 72.24333633 32.89582078 63.10445001 28 54 C27.47390137 53.01902344 26.94780273 52.03804688 26.40576172 51.02734375 C21.05317125 41.04861892 15.6892781 31.07632374 10.25 21.14453125 C9.6516333 20.04906982 9.0532666 18.9536084 8.43676758 17.82495117 C7.29468549 15.73572997 6.14885381 13.64855291 4.9987793 11.5637207 C4.48742432 10.6274585 3.97606934 9.69119629 3.44921875 8.7265625 C2.99893311 7.90752441 2.54864746 7.08848633 2.0847168 6.24462891 C1.07410295 4.15334291 0.46169427 2.26850766 0 0 Z M48 101 C48.66 101 49.32 101 50 101 C50 101.66 50 102.32 50 103 C49.01 103.33 48.02 103.66 47 104 C47.33 103.01 47.66 102.02 48 101 Z " fill="#2D3348" transform="translate(484,328)"/>
<path d="M0 0 C3.10319734 0.42316327 4.36618664 1.33372228 6.4375 3.64453125 C11.22550336 9.95728568 14.64312919 17.08343624 18.1171875 24.16796875 C19.89173341 27.6533807 21.79646062 31.0506874 23.75 34.4375 C24.08547852 35.02289551 24.42095703 35.60829102 24.76660156 36.21142578 C26.37463993 39.01184565 28.00309202 41.7969922 29.6640625 44.56640625 C30.22867188 45.53449219 30.79328125 46.50257813 31.375 47.5 C31.88289062 48.34820312 32.39078125 49.19640625 32.9140625 50.0703125 C33.75 52.375 33.75 52.375 32.8984375 54.6796875 C32.51945313 55.23914063 32.14046875 55.79859375 31.75 56.375 C31.75 55.715 31.75 55.055 31.75 54.375 C29.75016466 55.16617904 29.75016466 55.16617904 27.75 56.375 C27.42 57.365 27.09 58.355 26.75 59.375 C26.38874023 58.75270508 26.02748047 58.13041016 25.65527344 57.48925781 C19.22321565 46.41701683 12.77690659 35.35454091 6.1875 24.375 C5.7121582 23.58254883 5.23681641 22.79009766 4.74707031 21.97363281 C4.29299805 21.21920898 3.83892578 20.46478516 3.37109375 19.6875 C2.93925781 18.96892822 2.50742187 18.25035645 2.0625 17.51000977 C1.16263222 16.04621815 0.23937561 14.59662381 -0.703125 13.15991211 C-1.16332031 12.45616455 -1.62351562 11.75241699 -2.09765625 11.02734375 C-2.514104 10.40593506 -2.93055176 9.78452637 -3.35961914 9.14428711 C-4.25 7.375 -4.25 7.375 -4.125 3.9375 C-2.94827586 0.49137931 -2.94827586 0.49137931 0 0 Z " fill="#828A9D" transform="translate(524.25,373.625)"/>
<path d="M0 0 C8.99109566 3.5401182 14.9324686 16.89190891 19.67285156 24.84472656 C22.16459271 29.02447787 24.72422824 33.12765217 27.4375 37.16796875 C28.00041748 38.01738037 28.56333496 38.86679199 29.14331055 39.74194336 C30.23524044 41.38263311 31.34295937 43.01295093 32.46801758 44.63110352 C36.104036 50.14862286 36.104036 50.14862286 35.57421875 54.484375 C34 57 34 57 31.90161133 57.65722656 C31.27407959 57.7703418 30.64654785 57.88345703 30 58 C29.41734375 56.88367188 28.8346875 55.76734375 28.234375 54.6171875 C23.51691608 45.60287885 18.74247305 36.62179328 13.875 27.6875 C13.37162109 26.76332275 12.86824219 25.83914551 12.34960938 24.88696289 C10.09557497 20.766444 7.82206723 16.66180545 5.4609375 12.6015625 C5.08340332 11.95227783 4.70586914 11.30299316 4.31689453 10.6340332 C3.32801208 8.94569179 2.32851437 7.26358004 1.328125 5.58203125 C0 3 0 3 0 0 Z " fill="#353C50" transform="translate(484,328)"/>
<path d="M0 0 C3.85365675 3.22631728 4.97040745 7.61491179 6.71875 12.1875 C7.77766958 14.97097143 7.77766958 14.97097143 9.55859375 16.49609375 C11.70215948 18.73260542 11.92588394 21.06858561 12.5625 24.0625 C13.38110217 28.5081952 13.38110217 28.5081952 16 32 C17.78102907 35.27709349 19.29311811 38.32421418 20 42 C19.01 42 18.02 42 17 42 C17 41.34 17 40.68 17 40 C15.515 39.505 15.515 39.505 14 39 C12.96411133 36.73754883 12.96411133 36.73754883 12 34 C10.30173968 30.52503199 8.48656161 27.11121221 6.6875 23.6875 C5.9769043 22.31948242 5.9769043 22.31948242 5.25195312 20.92382812 C2.66600215 15.98894221 -0.02769234 11.21528606 -3.10620117 6.56958008 C-4 5 -4 5 -4 3 C-3.34 3 -2.68 3 -2 3 C-2 2.34 -2 1.68 -2 1 C-1.34 0.67 -0.68 0.34 0 0 Z " fill="#1C2336" transform="translate(419,449)"/>
<path d="M0 0 C0.66 0.33 1.32 0.66 2 1 C-10.93039049 10.57894737 -10.93039049 10.57894737 -17 14 C-19 13 -19 13 -20.125 10 C-21 7 -21 7 -21 6 C-20.154375 5.81824219 -19.30875 5.63648438 -18.4375 5.44921875 C-10.75256706 3.76356082 -10.75256706 3.76356082 -3.3125 1.25 C-2.219375 0.8375 -1.12625 0.425 0 0 Z " fill="#2C3246" transform="translate(453,625)"/>
<path d="M0 0 C5.21573634 3.94704371 6.05777283 8.05431758 7.32421875 14.35546875 C7.79503605 17.13505224 7.79503605 17.13505224 10 19 C11.78102907 22.27709349 13.29311811 25.32421418 14 29 C13.01 29 12.02 29 11 29 C11 28.34 11 27.68 11 27 C10.01 26.67 9.02 26.34 8 26 C7.0625 23.9375 7.0625 23.9375 6 21 C5.29856776 19.68379896 4.58970612 18.37154069 3.875 17.0625 C2.03667607 13.49319953 2 11.01065825 2 7 C0.12230858 4.15079947 0.12230858 4.15079947 -2 2 C-1.34 2 -0.68 2 0 2 C0 1.34 0 0.68 0 0 Z " fill="#21293D" transform="translate(425,462)"/>
<path d="M0 0 C3.72355269 3.66909488 7.2943376 7.44674879 10.8125 11.3125 C11.56563477 12.13717773 11.56563477 12.13717773 12.33398438 12.97851562 C13.55703968 14.31805239 14.77867008 15.65888992 16 17 C13.64046906 19.35953094 12.22104383 19.49141413 9 20 C7.68253667 17.41909233 6.37090383 14.83549542 5.0625 12.25 C4.68931641 11.52039063 4.31613281 10.79078125 3.93164062 10.0390625 C3.57392578 9.33007812 3.21621094 8.62109375 2.84765625 7.890625 C2.51773682 7.24125977 2.18781738 6.59189453 1.84790039 5.92285156 C0.98547884 3.96706921 0.45625821 2.08459306 0 0 Z " fill="#141B28" transform="translate(275,598)"/>
<path d="M0 0 C4 0 4 0 5.390625 1.3125 C5.92171875 1.869375 6.4528125 2.42625 7 3 C8.88510131 4.05830249 10.80661509 5.05296979 12.75 6 C13.8121875 6.51820313 14.874375 7.03640625 15.96875 7.5703125 C19.2834517 9.13368985 22.60838531 10.61252126 26 12 C25.01 12.495 25.01 12.495 24 13 C23.67 13.66 23.34 14.32 23 15 C20.47619639 13.60933271 17.95602681 12.21266777 15.4375 10.8125 C14.38079102 10.23145508 14.38079102 10.23145508 13.30273438 9.63867188 C8.62982829 7.03304221 4.26085166 4.24183063 0 1 C0 0.67 0 0.34 0 0 Z " fill="#8C9CAA" transform="translate(304,626)"/>
<path d="M0 0 C0 4.00066913 -0.64009892 5.73778379 -3 9 C-6.2793053 10.14355262 -9.56820915 10.55001795 -13 11 C-14.3380998 11.3136524 -15.67363377 11.63994235 -17 12 C-12.69230769 7.07692308 -12.69230769 7.07692308 -9.1875 6.6875 C-8.465625 6.790625 -7.74375 6.89375 -7 7 C-7 6.34 -7 5.68 -7 5 C-5.68 4.67 -4.36 4.34 -3 4 C-3 3.34 -3 2.68 -3 2 C-2.01 1.34 -1.02 0.68 0 0 Z " fill="#97A2B4" transform="translate(664,662)"/>
<path d="M0 0 C0.99 0.33 1.98 0.66 3 1 C3.33 1.99 3.66 2.98 4 4 C4.99 4.66 5.98 5.32 7 6 C7 7.66666667 7 9.33333333 7 11 C8.31267956 12.72943475 8.31267956 12.72943475 10 14 C10.66 14.66 11.32 15.32 12 16 C11.67 16.99 11.34 17.98 11 19 C10.34 19 9.68 19 9 19 C7.4933028 16.2118978 5.99580196 13.41896042 4.5 10.625 C4.07074219 9.8309375 3.64148438 9.036875 3.19921875 8.21875 C2.79316406 7.45820312 2.38710938 6.69765625 1.96875 5.9140625 C1.40317383 4.8614624 1.40317383 4.8614624 0.82617188 3.78759766 C0 2 0 2 0 0 Z " fill="#20283C" transform="translate(344,530)"/>
<path d="M0 0 C0.33 0.99 0.66 1.98 1 3 C3.8201938 4.71226052 6.92955871 5.8059395 10 7 C10 7.66 10 8.32 10 9 C10.66 9.33 11.32 9.66 12 10 C12 10.66 12 11.32 12 12 C13.45833358 13.62514468 13.45833358 13.62514468 15 15 C14.67 15.66 14.34 16.32 14 17 C13.59910156 16.49210937 13.19820313 15.98421875 12.78515625 15.4609375 C8.42802678 10.18495759 3.86013656 6.50810896 -2 3 C-1.34 2.67 -0.68 2.34 0 2 C0 1.34 0 0.68 0 0 Z " fill="#979FB3" transform="translate(422,282)"/>
<path d="M0 0 C0.66 0.66 1.32 1.32 2 2 C0.09276551 3.90723449 -1.77997606 5.47373354 -4 7 C-4.66 7 -5.32 7 -6 7 C-6.33 7.99 -6.66 8.98 -7 10 C-9.06640625 11.82421875 -9.06640625 11.82421875 -11.5625 13.6875 C-12.38878906 14.31011719 -13.21507812 14.93273437 -14.06640625 15.57421875 C-15.02353516 16.27998047 -15.02353516 16.27998047 -16 17 C-16 14 -16 14 -14.5390625 12.39453125 C-13.90742188 11.87246094 -13.27578125 11.35039063 -12.625 10.8125 C-11.68527344 10.01779297 -11.68527344 10.01779297 -10.7265625 9.20703125 C-9 8 -9 8 -7 8 C-7 7.34 -7 6.68 -7 6 C-5.46875 4.4921875 -5.46875 4.4921875 -3.5 2.875 C-2.8503125 2.33617187 -2.200625 1.79734375 -1.53125 1.2421875 C-0.77328125 0.62730469 -0.77328125 0.62730469 0 0 Z " fill="#202636" transform="translate(472,609)"/>
<path d="M0 0 C-2.4137931 4.70689655 -2.4137931 4.70689655 -5 6 C-7 6 -7 6 -8.75 4.6875 C-10 3 -10 3 -10 1 C-6.59437148 0.22157062 -3.49234244 -0.09978121 0 0 Z " fill="#32394E" transform="translate(442,630)"/>
<path d="M0 0 C-0.66 0.66 -1.32 1.32 -2 2 C-1.67 2.99 -1.34 3.98 -1 5 C-4.4375 4.1875 -4.4375 4.1875 -8 3 C-8.33 2.01 -8.66 1.02 -9 0 C-5.93109813 -1.53445094 -3.29905734 -0.54984289 0 0 Z " fill="#98ABB7" transform="translate(337,639)"/>
<path d="M0 0 C0.99 1.32 1.98 2.64 3 4 C3.5775 4.495 4.155 4.99 4.75 5.5 C5.1625 5.995 5.575 6.49 6 7 C5.6875 9.1875 5.6875 9.1875 5 11 C3.68 11 2.36 11 1 11 C0.67 7.37 0.34 3.74 0 0 Z " fill="#30374C" transform="translate(512,437)"/>
<path d="M0 0 C0.66 0.33 1.32 0.66 2 1 C1.61121002 3.81872737 1.29189635 4.77195598 -1 6.5625 C-1.66 7.036875 -2.32 7.51125 -3 8 C-3.33 8.99 -3.66 9.98 -4 11 C-4.66 10.67 -5.32 10.34 -6 10 C-5.34 8.35 -4.68 6.7 -4 5 C-3.34 5 -2.68 5 -2 5 C-1.855625 4.360625 -1.71125 3.72125 -1.5625 3.0625 C-1 1 -1 1 0 0 Z " fill="#969EB1" transform="translate(756,492)"/>
<path d="M0 0 C2.475 0.495 2.475 0.495 5 1 C5.84454356 4.37817425 6.10844919 6.67465243 5 10 C5 9.34 5 8.68 5 8 C4.34 8 3.68 8 3 8 C0 2.25 0 2.25 0 0 Z " fill="#959DB2" transform="translate(360,509)"/>
<path d="M0 0 C2.03833424 1.2739589 4.03852126 2.61061923 6 4 C6 4.66 6 5.32 6 6 C5.401875 5.835 4.80375 5.67 4.1875 5.5 C1.88655664 4.8885876 1.88655664 4.8885876 -1 5 C-1.66 4.34 -2.32 3.68 -3 3 C-2.01 2.01 -1.02 1.02 0 0 Z " fill="#606B7E" transform="translate(399,620)"/>
<path d="M0 0 C0.66 0 1.32 0 2 0 C2.433125 0.9590625 2.433125 0.9590625 2.875 1.9375 C3.82823451 4.15206079 3.82823451 4.15206079 6 5 C5.67 5.66 5.34 6.32 5 7 C4.67 7.99 4.34 8.98 4 10 C0.92436109 8.46218054 0.29677426 6.08755777 -1 3 C-0.67 2.01 -0.34 1.02 0 0 Z " fill="#455163" transform="translate(320,481)"/>
<path d="M0 0 C-0.25 2.375 -0.25 2.375 -1 5 C-3.0625 6.3125 -3.0625 6.3125 -5 7 C-5.33 5.68 -5.66 4.36 -6 3 C-2.25 0 -2.25 0 0 0 Z " fill="#232A3D" transform="translate(559,449)"/>
<path d="M0 0 C2.0625 1.625 2.0625 1.625 4 4 C3.75 7.25 3.75 7.25 3 10 C0.9375 7.8125 0.9375 7.8125 -1 5 C-0.75 2.1875 -0.75 2.1875 0 0 Z " fill="#8A92A5" transform="translate(549,423)"/>
<path d="M0 0 C2.23960447 2.87949147 4.29864224 5.76742026 6 9 C5.67 9.66 5.34 10.32 5 11 C4.38125 10.34 3.7625 9.68 3.125 9 C1.24362573 6.7715451 1.24362573 6.7715451 -1 7 C-1 3 -1 3 0 0 Z " fill="#2B3148" transform="translate(470,361)"/>
<path d="M0 0 C4 0 4 0 5.4375 1.3125 C6.2109375 2.1478125 6.2109375 2.1478125 7 3 C8.64605826 4.03357147 10.30963442 5.04060332 12 6 C11.34 6.66 10.68 7.32 10 8 C8.33055479 6.85821872 6.6645052 5.71147095 5 4.5625 C4.071875 3.92441406 3.14375 3.28632812 2.1875 2.62890625 C1.465625 2.09136719 0.74375 1.55382812 0 1 C0 0.67 0 0.34 0 0 Z " fill="#7F8E9B" transform="translate(304,626)"/>
<path d="M0 0 C2.64752004 2.57784846 4.94432065 4.91648098 7 8 C6.01 8.66 5.02 9.32 4 10 C3.32845067 8.71086513 2.66291141 7.41859796 2 6.125 C1.62875 5.40570312 1.2575 4.68640625 0.875 3.9453125 C0 2 0 2 0 0 Z " fill="#202B3C" transform="translate(275,598)"/>
<path d="M0 0 C0 3.44360632 -0.79591532 4.74795392 -2.5 7.6875 C-2.9640625 8.49574219 -3.428125 9.30398438 -3.90625 10.13671875 C-4.2671875 10.75160156 -4.628125 11.36648438 -5 12 C-6 9 -6 9 -5.29296875 6.9921875 C-4.92816406 6.29351563 -4.56335938 5.59484375 -4.1875 4.875 C-3.83042969 4.17117188 -3.47335937 3.46734375 -3.10546875 2.7421875 C-2 1 -2 1 0 0 Z " fill="#23293F" transform="translate(369,531)"/>
<path d="M0 0 C1.485 0.99 1.485 0.99 3 2 C3 2.99 3 3.98 3 5 C3.99 4.67 4.98 4.34 6 4 C6 5.65 6 7.3 6 9 C5.01 9.495 5.01 9.495 4 10 C0 3.375 0 3.375 0 0 Z " fill="#4B586B" transform="translate(313,470)"/>
<path d="M0 0 C2.94180214 2.02882906 4.97117094 4.05819786 7 7 C6.01 8.485 6.01 8.485 5 10 C4.67 8.68 4.34 7.36 4 6 C3.34 6 2.68 6 2 6 C0 3 0 3 0 0 Z " fill="#525A6F" transform="translate(486,391)"/>
<path d="M0 0 C0.66 0.33 1.32 0.66 2 1 C2 1.66 2 2.32 2 3 C3.65 2.34 5.3 1.68 7 1 C6.67 2.32 6.34 3.64 6 5 C3.6568787 4.74438677 1.32156597 4.40729228 -1 4 C-1.33 3.34 -1.66 2.68 -2 2 C-1.34 2 -0.68 2 0 2 C0 1.34 0 0.68 0 0 Z " fill="#A1B1BF" transform="translate(343,643)"/>
<path d="M0 0 C0.33 0.66 0.66 1.32 1 2 C-0.26607607 2.53229326 -1.53810412 3.05044544 -2.8125 3.5625 C-3.52019531 3.85253906 -4.22789062 4.14257812 -4.95703125 4.44140625 C-7 5 -7 5 -10 4 C-6.79663178 1.16625119 -4.21912747 0.4794463 0 0 Z " fill="#2A3147" transform="translate(638,676)"/>
<path d="M0 0 C4 2 4 2 5 4 C5.66 4.33 6.32 4.66 7 5 C6.67 5.99 6.34 6.98 6 8 C5.34 8 4.68 8 4 8 C2.68 5.36 1.36 2.72 0 0 Z " fill="#8D97AA" transform="translate(554,437)"/>
<path d="M0 0 C0.33 0 0.66 0 1 0 C1 1.98 1 3.96 1 6 C0.01 6.33 -0.98 6.66 -2 7 C-2.33 7.99 -2.66 8.98 -3 10 C-3.33 9.34 -3.66 8.68 -4 8 C-3.22265625 6.0546875 -3.22265625 6.0546875 -2.0625 3.875 C-1.49208984 2.78832031 -1.49208984 2.78832031 -0.91015625 1.6796875 C-0.60980469 1.12539063 -0.30945313 0.57109375 0 0 Z " fill="#8A90A2" transform="translate(482,593)"/>
<path d="M0 0 C2.15377564 2.62198774 3.40072174 4.64404172 4 8 C2.68 8 1.36 8 0 8 C-0.79953138 4.71303767 -1.09658936 3.28976808 0 0 Z " fill="#2C3248" transform="translate(460,342)"/>
<path d="M0 0 C-2.31 1.65 -4.62 3.3 -7 5 C-7.33 3.68 -7.66 2.36 -8 1 C-2.25 -1.125 -2.25 -1.125 0 0 Z " fill="#272D41" transform="translate(455,626)"/>
<path d="M0 0 C1.9375 0.5625 1.9375 0.5625 4 2 C4.75 5.625 4.75 5.625 5 9 C0.57142857 3.85714286 0.57142857 3.85714286 0 0 Z " fill="#2E3449" transform="translate(486,577)"/>
<path d="M0 0 C1.32 0 2.64 0 4 0 C3.39816251 2.02045442 2.72693904 4.02111039 2 6 C1.01 6.495 1.01 6.495 0 7 C-0.93423645 3.98968256 -1.04449911 3.13349732 0 0 Z " fill="#979FB2" transform="translate(396,548)"/>
<path d="M0 0 C2.32472205 2.85306797 3.7508258 5.54074837 5 9 C4.01 8.67 3.02 8.34 2 8 C2 7.34 2 6.68 2 6 C1.34 6 0.68 6 0 6 C0 4.02 0 2.04 0 0 Z " fill="#2F374C" transform="translate(564,531)"/>
<path d="M0 0 C1.98 0.99 1.98 0.99 4 2 C4 3.32 4 4.64 4 6 C3.34 6 2.68 6 2 6 C0 3 0 3 0 0 Z " fill="#343C4F" transform="translate(484,328)"/>
<path d="M0 0 C2.15473199 1.5801368 4.10646634 3.10646634 6 5 C5.67 5.99 5.34 6.98 5 8 C4.34 8 3.68 8 3 8 C0 2.25 0 2.25 0 0 Z " fill="#141D2F" transform="translate(350,541)"/>
<path d="M0 0 C0.99 0.33 1.98 0.66 3 1 C3.6875 3.0625 3.6875 3.0625 4 5 C3.01 4.67 2.02 4.34 1 4 C0.3125 1.9375 0.3125 1.9375 0 0 Z M-1 4 C-0.34 4 0.32 4 1 4 C1 4.66 1 5.32 1 6 C0.01 6.33 -0.98 6.66 -2 7 C-1.67 6.01 -1.34 5.02 -1 4 Z " fill="#5D6578" transform="translate(533,425)"/>
<path d="M0 0 C0.99 0 1.98 0 3 0 C4.31223496 3.93670488 3.24296256 6.12488144 2 10 C1.67 10 1.34 10 1 10 C0.67 6.7 0.34 3.4 0 0 Z " fill="#262E43" transform="translate(384,348)"/>
</svg>
